# xmcd
#
# Track frame offsets:
#	150
#	29929
#	56599
#	84513
#	110372
#	134568
#	157293
#	181872
#	202806
#
# Disc length: 2996 seconds
#
# Revision: 3096349690
# Processed by: cddbd v1.5.2PL0 Copyright (c) Steve Scherf et al.
# Submitted via: EZCDAudioConverter 8.0.2.1
#
DISCID=7e0bb209
DTITLE=Hương Mơ - Mưa Huế
DYEAR=2005
DGENRE=Contemporary Pop
TTITLE0=Giã từ cố đô
TTITLE1=Tình Huế
TTITLE2=Đêm tàn bến Ngự
TTITLE3=Ngược dòng Hương Giang
TTITLE4=Thương về cố đô
TTITLE5=Huế mơ
TTITLE6=Mắt Huế xưa
TTITLE7=Lý mười thương
TTITLE8=Mưa Huế
EXTD=
EXTT0=
EXTT1=
EXTT2=
EXTT3=
EXTT4=
EXTT5=
EXTT6=
EXTT7=
EXTT8=
PLAYORDER=
